HIERARCHY
ROOT Hips
{
	OFFSET 0.00000 0.00000 0.00000
	CHANNELS 6 Xposition Yposition Zposition Zrotation Yrotation Xrotation 
	JOINT LHipJoint
	{
		OFFSET 0 0 0
		CHANNELS 3 Zrotation Yrotation Xrotation
		JOINT LeftHip
		{
			OFFSET 1.38615 -1.80049 0.80104
			CHANNELS 3 Zrotation Yrotation Xrotation
			JOINT LeftKnee
			{
				OFFSET 2.50172 -6.87341 0.00000
				CHANNELS 3 Zrotation Yrotation Xrotation
				JOINT LeftAnkle
				{
					OFFSET 2.67523 -7.35014 0.00000
					CHANNELS 3 Zrotation Yrotation Xrotation
					JOINT LeftToe
					{
						OFFSET 0.17446 -0.47932 2.13155
						CHANNELS 3 Zrotation Yrotation Xrotation
						End Site
						{
							OFFSET 0.00000 -0.00000 1.10023
						}
					}
				}
			}
		}
	}
	JOINT RHipJoint
	{
		OFFSET 0 0 0
		CHANNELS 3 Zrotation Yrotation Xrotation
		JOINT RightHip
		{
			OFFSET -1.18047 -1.80049 0.80104
			CHANNELS 3 Zrotation Yrotation Xrotation
			JOINT RightKnee
			{
				OFFSET -2.59789 -7.13765 0.00000
				CHANNELS 3 Zrotation Yrotation Xrotation
				JOINT RightAnkle
				{
					OFFSET -2.62125 -7.20183 0.00000
					CHANNELS 3 Zrotation Yrotation Xrotation
					JOINT RightToe
					{
						OFFSET -0.31287 -0.85960 2.07814
						CHANNELS 3 Zrotation Yrotation Xrotation
						End Site
						{
							OFFSET -0.00000 -0.00000 1.11766
						}
					}
				}
			}
		}
	}
	JOINT lowerback
	{
		OFFSET 0 0 0
		CHANNELS 3 Zrotation Yrotation Xrotation
		JOINT Chest
		{
			OFFSET -0.01587 2.16157 -0.12309
			CHANNELS 3 Zrotation Yrotation Xrotation
			JOINT Chest2
			{
				OFFSET 0.04727 2.16674 -0.03569
				CHANNELS 3 Zrotation Yrotation Xrotation
				JOINT lowerneck
				{
					OFFSET 0 0 0
					CHANNELS 3 Zrotation Yrotation Xrotation
					JOINT Neck
					{
						OFFSET -0.08586 1.60335 0.32783
						CHANNELS 3 Zrotation Yrotation Xrotation
						JOINT Head
						{
							OFFSET 0.07583 1.65857 -0.31618
							CHANNELS 3 Zrotation Yrotation Xrotation
							End Site
							{
								OFFSET 0.03386 1.69434 -0.14584
							}
						}
					}
				}
				JOINT LeftCollar
				{
					OFFSET 0 0 0
					CHANNELS 3 Zrotation Yrotation Xrotation
					JOINT LeftShoulder
					{
						OFFSET 3.17393 1.01901 -0.52897
CHANNELS 3 Zrotation Xrotation Yrotation
						JOINT LeftElbow
						{
OFFSET 0 -5.252870 -0.000000
CHANNELS 3 Zrotation Xrotation Yrotation
							JOINT LeftWrist
							{
OFFSET 0 -3.510140 0.000000
CHANNELS 3 Zrotation Xrotation Yrotation
								JOINT lhand
								{
									OFFSET 0 0 0
CHANNELS 3 Zrotation Xrotation Yrotation
									JOINT LFingers
									{
OFFSET 0 -0.706180 -0.000000
CHANNELS 3 Zrotation Xrotation Yrotation
										End Site
										{
OFFSET 0 -0.569340 -0.000000
										}
									}
								}
								JOINT LThumb
								{
OFFSET 0 0.000000 0.000000
CHANNELS 3 Zrotation Xrotation Yrotation
									End Site
									{
OFFSET 0 -0.578030 0.578030
									}
								}
							}
						}
					}
				}
				JOINT RightCollar
				{
					OFFSET 0 0 0
					CHANNELS 3 Zrotation Yrotation Xrotation
					JOINT RightShoulder
					{
						OFFSET -2.99471 1.26495 -0.61125
CHANNELS 3 Zrotation Xrotation Yrotation
						JOINT RightElbow
						{
OFFSET 0 -5.287210 -0.000000
CHANNELS 3 Zrotation Xrotation Yrotation
							JOINT RightWrist
							{
OFFSET 0 -3.505440 0.000000
CHANNELS 3 Zrotation Xrotation Yrotation
								JOINT rhand
								{
									OFFSET 0 0 0
CHANNELS 3 Zrotation Xrotation Yrotation
									JOINT RFingers
									{
OFFSET 0 -0.885000 -0.000000
CHANNELS 3 Zrotation Xrotation Yrotation
										End Site
										{
OFFSET 0 -0.713510 -0.000000
										}
									}
								}
								JOINT RThumb
								{
OFFSET 0 0.000000 0.000000
CHANNELS 3 Zrotation Xrotation Yrotation
									End Site
									{
OFFSET 0 -0.724400 0.724400
									}
								}
							}
						}
					}
				}
			}
		}
	}
}
MOTION
Frames: 7
Frame Time: 0.008333333333333333
-8.104200 17.645600 -8.035800 -1.394000 3.824000 2.866600 0.000000 0.000000 0.000000 -18.303500 -5.588000 -22.450500 2.035900 8.940400 25.609000 -0.002700 -9.104800 -6.331700 0.867800 -5.939700 -16.609400 0.000000 0.000000 0.000000 20.888400 -1.260300 -3.951000 -7.091800 -15.408700 49.220800 -0.147600 5.442100 11.229900 -0.001700 0.266500 -0.732300 1.221100 5.296500 -0.535000 1.385400 7.007700 2.704100 0.967000 3.507900 3.051300 2.531700 19.494400 -9.513600 -3.090500 26.780900 15.147400 1.120500 12.832500 6.923300 0.000000 -0.000000 0.000000 -2.737500 -10.667600 -33.656900 15.674300 -25.077000 3.506800 1.267700 4.758200 -42.439300 0.000000 0.000000 0.000000 -7.125000 0.000000 0.000000 -47.627500 66.430500 27.124100 0.000000 -0.000000 0.000000 -12.637700 11.249700 8.832600 -44.417800 -50.480000 -21.788700 -26.221600 -20.913600 -10.208100 0.000000 0.000000 0.000000 7.125000 0.000000 -0.000000 0.568900 18.629900 0.357400
-8.094101 17.646987 -7.983492 -1.330278 3.773292 2.812337 0.000000 0.000000 0.000000 -18.435496 -5.495830 -22.245856 2.049981 8.969274 25.699249 0.013693 -9.035957 -6.579797 0.833450 -5.821501 -16.267960 0.000000 0.000000 0.000000 20.775357 -1.315488 -4.362350 -7.304338 -15.578424 50.008616 -0.193080 5.187033 11.785656 -0.018982 0.686668 -1.888083 1.142301 5.298669 -0.542112 1.361504 7.012501 2.739410 0.988584 3.508647 3.085259 2.603459 19.457632 -9.353974 -3.216878 26.731153 14.997127 1.049595 12.812053 6.874797 0.000000 0.000000 0.000000 -2.654540 -10.731073 -33.415773 15.555781 -24.914139 3.456981 2.150317 5.380807 -41.595905 0.000000 0.000000 0.000000 -7.125000 0.000000 0.000000 -45.424675 66.097950 25.367615 0.000000 0.000000 0.000000 -12.522132 11.073184 9.066224 -44.528140 -50.534975 -21.873900 -26.151726 -20.820328 -10.262257 0.000000 0.000000 0.000000 7.125000 0.000000 0.000000 0.621421 18.576774 0.391217
-8.084002 17.648374 -7.931185 -1.266556 3.722585 2.758073 0.000000 0.000000 0.000000 -18.567492 -5.403661 -22.041213 2.064063 8.998148 25.789499 0.030086 -8.967115 -6.827894 0.799099 -5.703302 -15.926520 0.000000 0.000000 0.000000 20.662314 -1.370676 -4.773699 -7.516875 -15.748149 50.796431 -0.238561 4.931967 12.341412 -0.036264 1.106837 -3.043866 1.063501 5.300838 -0.549224 1.337608 7.017301 2.774721 1.010169 3.509393 3.119218 2.675217 19.420863 -9.194349 -3.343255 26.681405 14.846853 0.978690 12.791607 6.826294 0.000000 0.000000 0.000000 -2.571580 -10.794547 -33.174645 15.437262 -24.751277 3.407163 3.032933 6.003414 -40.752511 0.000000 0.000000 0.000000 -7.125000 0.000000 0.000000 -43.221849 65.765399 23.611129 0.000000 0.000000 0.000000 -12.406565 10.896668 9.299849 -44.638481 -50.589949 -21.959100 -26.081852 -20.727056 -10.316414 0.000000 0.000000 0.000000 7.125000 0.000000 0.000000 0.673942 18.523649 0.425034
-8.074358 17.649834 -7.878844 -1.173217 3.679043 2.698721 0.000000 0.000000 0.000000 -18.731862 -5.317281 -21.803134 2.071393 9.013159 25.836429 0.045417 -8.898298 -7.056131 0.767754 -5.594853 -15.613394 0.000000 0.000000 0.000000 20.517425 -1.438886 -5.187520 -7.733974 -15.918628 51.596367 -0.279240 4.699919 12.830663 -0.068557 1.595586 -4.391969 0.952468 5.305111 -0.540376 1.301532 7.026148 2.806445 1.035019 3.511596 3.138092 2.760692 19.379127 -9.048687 -3.459529 26.622770 14.715151 0.910936 12.767060 6.786072 0.000000 0.000000 0.000000 -2.472187 -10.842501 -32.963628 15.324038 -24.595501 3.359682 3.708171 6.502429 -40.577437 0.000000 0.000000 0.000000 -7.125000 0.000000 0.000000 -42.449381 65.810365 23.233308 0.000000 0.000000 0.000000 -12.276420 10.727397 9.526421 -44.737636 -50.639308 -22.035679 -26.031878 -20.626933 -10.372286 0.000000 0.000000 0.000000 7.125000 0.000000 0.000000 0.712527 18.466710 0.450129
-8.066677 17.651612 -7.826358 -0.951790 3.666490 2.617362 0.000000 0.000000 0.000000 -19.036249 -5.255941 -21.420445 2.049524 8.968212 25.696006 0.056156 -8.829598 -7.198475 0.749406 -5.528570 -15.422725 0.000000 0.000000 0.000000 20.234800 -1.563414 -5.612026 -7.970799 -16.092370 52.448722 -0.299153 4.567425 13.032284 -0.165776 2.380948 -6.571859 0.702024 5.318481 -0.462501 1.212776 7.052498 2.822660 1.073992 3.520095 3.091723 2.905489 19.315903 -8.963416 -3.532106 26.525693 14.663767 0.856815 12.724780 6.781663 0.000000 0.000000 0.000000 -2.301716 -10.823334 -32.882837 15.233718 -24.470368 3.322309 3.486494 6.466905 -43.292849 0.000000 0.000000 0.000000 -7.125000 0.000000 0.000000 -47.863208 67.488087 28.818211 0.000000 0.000000 0.000000 -12.083226 10.589462 9.722495 -44.788415 -50.664377 -22.074972 -26.067971 -20.497177 -10.435582 0.000000 0.000000 0.000000 7.125000 0.000000 0.000000 0.690835 18.393280 0.437506
-8.058996 17.653390 -7.773873 -0.730362 3.653938 2.536002 0.000000 0.000000 0.000000 -19.340637 -5.194601 -21.037756 2.027655 8.923265 25.555582 0.066894 -8.760897 -7.340819 0.731057 -5.462288 -15.232056 0.000000 0.000000 0.000000 19.952175 -1.687943 -6.036533 -8.207624 -16.266113 53.301078 -0.319066 4.434931 13.233905 -0.262995 3.166310 -8.751748 0.451580 5.331851 -0.384626 1.124020 7.078847 2.838875 1.112965 3.528593 3.045354 3.050287 19.252678 -8.878144 -3.604682 26.428616 14.612384 0.802694 12.682500 6.777253 0.000000 0.000000 0.000000 -2.131244 -10.804168 -32.802047 15.143397 -24.345235 3.284936 3.264818 6.431381 -46.008261 0.000000 0.000000 0.000000 -7.125000 0.000000 0.000000 -53.277035 69.165809 34.403113 0.000000 0.000000 0.000000 -11.890033 10.451528 9.918569 -44.839193 -50.689446 -22.114265 -26.104063 -20.367421 -10.498877 0.000000 0.000000 0.000000 7.125000 0.000000 0.000000 0.669144 18.319851 0.424882
-8.050821 17.657238 -7.721427 -0.524774 3.644671 2.464232 0.000000 0.000000 0.000000 -19.624162 -5.154377 -20.663815 2.007616 8.881844 25.426351 0.078515 -8.675022 -7.488197 0.716061 -5.407691 -15.075110 0.000000 0.000000 0.000000 19.666985 -1.722882 -6.464164 -8.444969 -16.434620 54.146449 -0.347126 4.050083 13.389863 -0.296308 3.464793 -9.578770 0.235928 5.333215 -0.313282 1.042209 7.087888 2.829287 1.138742 3.529426 2.979579 3.161561 19.208165 -8.772079 -3.622327 26.358317 14.618844 0.770089 12.654778 6.776944 0.000000 0.000000 0.000000 -1.981982 -10.727212 -32.661877 15.059407 -24.228649 3.250328 3.018821 6.357474 -46.995072 0.000000 0.000000 0.000000 -7.125000 0.000000 0.000000 -55.310241 69.746822 36.396243 0.000000 0.000000 0.000000 -11.721774 10.382428 10.158382 -44.898092 -50.718429 -22.159862 -26.070039 -20.249993 -10.614447 0.000000 0.000000 0.000000 7.125000 0.000000 0.000000 0.699914 18.195830 0.446890
